<mxfile host="app.diagrams.net" modified="2023-06-28T14:06:01.965Z" agent="Mozilla/5.0 (Windows NT 10.0; Win64; x64) AppleWebKit/537.36 (KHTML, like Gecko) Chrome/112.0.0.0 YaBrowser/23.5.2.625 Yowser/2.5 Safari/537.36" etag="k8EoVsMEjPmp-qymc67x" version="21.2.0" type="device">
  <diagram name="Страница 1" id="9Pyer0AAdZ1bosmuEJMc">
    <mxGraphModel dx="1442" dy="807" grid="1" gridSize="10" guides="1" tooltips="1" connect="1" arrows="1" fold="1" page="1" pageScale="1" pageWidth="827" pageHeight="1169" math="0" shadow="0">
      <root>
        <mxCell id="0" />
        <mxCell id="1" parent="0" />
        <mxCell id="Ctf6zeeSC2-5puiO0tSW-1" value="&lt;font size=&quot;3&quot;&gt;ChangeArr&lt;/font&gt;" style="rounded=1;whiteSpace=wrap;html=1;" vertex="1" parent="1">
          <mxGeometry x="310" y="10" width="220" height="100" as="geometry" />
        </mxCell>
        <mxCell id="Ctf6zeeSC2-5puiO0tSW-2" value="&lt;font size=&quot;3&quot;&gt;string[] array1&lt;br&gt;string array2&lt;br&gt;int count=0&lt;br&gt;&lt;/font&gt;" style="shape=parallelogram;perimeter=parallelogramPerimeter;whiteSpace=wrap;html=1;fixedSize=1;" vertex="1" parent="1">
          <mxGeometry x="335" y="200" width="170" height="110" as="geometry" />
        </mxCell>
        <mxCell id="Ctf6zeeSC2-5puiO0tSW-3" value="" style="endArrow=classic;html=1;rounded=0;exitX=0.532;exitY=1;exitDx=0;exitDy=0;exitPerimeter=0;" edge="1" parent="1" source="Ctf6zeeSC2-5puiO0tSW-1" target="Ctf6zeeSC2-5puiO0tSW-2">
          <mxGeometry width="50" height="50" relative="1" as="geometry">
            <mxPoint x="460" y="440" as="sourcePoint" />
            <mxPoint x="510" y="390" as="targetPoint" />
          </mxGeometry>
        </mxCell>
        <mxCell id="Ctf6zeeSC2-5puiO0tSW-4" value="&lt;font size=&quot;3&quot;&gt;for (int i = 0;&lt;br&gt;i&amp;lt;array1.Lengh;&lt;br&gt;i++)&lt;br&gt;&lt;/font&gt;" style="shape=hexagon;perimeter=hexagonPerimeter2;whiteSpace=wrap;html=1;fixedSize=1;" vertex="1" parent="1">
          <mxGeometry x="318" y="400" width="204" height="120" as="geometry" />
        </mxCell>
        <mxCell id="Ctf6zeeSC2-5puiO0tSW-5" value="" style="endArrow=classic;html=1;rounded=0;exitX=0.5;exitY=1;exitDx=0;exitDy=0;entryX=0.5;entryY=0;entryDx=0;entryDy=0;" edge="1" parent="1" source="Ctf6zeeSC2-5puiO0tSW-2" target="Ctf6zeeSC2-5puiO0tSW-4">
          <mxGeometry width="50" height="50" relative="1" as="geometry">
            <mxPoint x="460" y="390" as="sourcePoint" />
            <mxPoint x="510" y="340" as="targetPoint" />
          </mxGeometry>
        </mxCell>
        <mxCell id="Ctf6zeeSC2-5puiO0tSW-6" value="&lt;font size=&quot;3&quot;&gt;if(array1[i].Length&amp;lt;=3)&lt;/font&gt;" style="rhombus;whiteSpace=wrap;html=1;" vertex="1" parent="1">
          <mxGeometry x="310" y="640" width="240" height="130" as="geometry" />
        </mxCell>
        <mxCell id="Ctf6zeeSC2-5puiO0tSW-7" value="" style="endArrow=classic;html=1;rounded=0;exitX=0.549;exitY=0.992;exitDx=0;exitDy=0;entryX=0.5;entryY=0;entryDx=0;entryDy=0;exitPerimeter=0;" edge="1" parent="1" source="Ctf6zeeSC2-5puiO0tSW-4" target="Ctf6zeeSC2-5puiO0tSW-6">
          <mxGeometry width="50" height="50" relative="1" as="geometry">
            <mxPoint x="460" y="490" as="sourcePoint" />
            <mxPoint x="510" y="440" as="targetPoint" />
          </mxGeometry>
        </mxCell>
        <mxCell id="Ctf6zeeSC2-5puiO0tSW-8" value="" style="endArrow=classic;html=1;rounded=0;exitX=0;exitY=0.5;exitDx=0;exitDy=0;" edge="1" parent="1" source="Ctf6zeeSC2-5puiO0tSW-6">
          <mxGeometry width="50" height="50" relative="1" as="geometry">
            <mxPoint x="460" y="490" as="sourcePoint" />
            <mxPoint x="310" y="510" as="targetPoint" />
          </mxGeometry>
        </mxCell>
        <mxCell id="Ctf6zeeSC2-5puiO0tSW-9" value="" style="endArrow=classic;html=1;rounded=0;entryX=0.108;entryY=0.917;entryDx=0;entryDy=0;entryPerimeter=0;" edge="1" parent="1" target="Ctf6zeeSC2-5puiO0tSW-4">
          <mxGeometry width="50" height="50" relative="1" as="geometry">
            <mxPoint x="310" y="510" as="sourcePoint" />
            <mxPoint x="510" y="440" as="targetPoint" />
          </mxGeometry>
        </mxCell>
        <mxCell id="Ctf6zeeSC2-5puiO0tSW-10" value="No&lt;br&gt;" style="text;html=1;align=center;verticalAlign=middle;resizable=0;points=[];autosize=1;strokeColor=none;fillColor=none;" vertex="1" parent="1">
          <mxGeometry x="280" y="598" width="40" height="30" as="geometry" />
        </mxCell>
        <mxCell id="Ctf6zeeSC2-5puiO0tSW-11" value="" style="endArrow=classic;html=1;rounded=0;exitX=0;exitY=0.5;exitDx=0;exitDy=0;" edge="1" parent="1" source="Ctf6zeeSC2-5puiO0tSW-6">
          <mxGeometry width="50" height="50" relative="1" as="geometry">
            <mxPoint x="460" y="480" as="sourcePoint" />
            <mxPoint x="120" y="705" as="targetPoint" />
          </mxGeometry>
        </mxCell>
        <mxCell id="Ctf6zeeSC2-5puiO0tSW-12" value="&lt;font size=&quot;3&quot;&gt;array2[count]=array1[i]&lt;br&gt;count++;&lt;br&gt;&lt;/font&gt;" style="rounded=0;whiteSpace=wrap;html=1;" vertex="1" parent="1">
          <mxGeometry x="10" y="430" width="190" height="90" as="geometry" />
        </mxCell>
        <mxCell id="Ctf6zeeSC2-5puiO0tSW-13" value="" style="endArrow=classic;html=1;rounded=0;entryX=0.574;entryY=1;entryDx=0;entryDy=0;entryPerimeter=0;" edge="1" parent="1" target="Ctf6zeeSC2-5puiO0tSW-12">
          <mxGeometry width="50" height="50" relative="1" as="geometry">
            <mxPoint x="120" y="710" as="sourcePoint" />
            <mxPoint x="510" y="420" as="targetPoint" />
          </mxGeometry>
        </mxCell>
        <mxCell id="Ctf6zeeSC2-5puiO0tSW-14" value="" style="endArrow=classic;html=1;rounded=0;exitX=1;exitY=0.5;exitDx=0;exitDy=0;entryX=-0.005;entryY=0.575;entryDx=0;entryDy=0;entryPerimeter=0;" edge="1" parent="1" source="Ctf6zeeSC2-5puiO0tSW-12" target="Ctf6zeeSC2-5puiO0tSW-4">
          <mxGeometry width="50" height="50" relative="1" as="geometry">
            <mxPoint x="460" y="470" as="sourcePoint" />
            <mxPoint x="510" y="420" as="targetPoint" />
          </mxGeometry>
        </mxCell>
        <mxCell id="Ctf6zeeSC2-5puiO0tSW-15" value="Yes" style="text;html=1;align=center;verticalAlign=middle;resizable=0;points=[];autosize=1;strokeColor=none;fillColor=none;" vertex="1" parent="1">
          <mxGeometry x="170" y="678" width="40" height="30" as="geometry" />
        </mxCell>
      </root>
    </mxGraphModel>
  </diagram>
</mxfile>
